<svg t="1677143876570" class="icon" viewBox="0 0 1024 1024" version="1.1" xmlns="http://www.w3.org/2000/svg" p-id="3848" width="200" height="200">
    <path d="M85.333333 0h853.333334c46.933333 0 85.333333 38.4 85.333333 85.333333v853.333334c0 46.933333-38.4 85.333333-85.333333 85.333333H85.333333c-46.933333 0-85.333333-38.4-85.333333-85.333333V85.333333c0-46.933333 38.4-85.333333 85.333333-85.333333z" fill="#1596DB" p-id="3849"></path>
        <path d="M900.266667 413.866667c-32 42.666667-93.866667 21.333333-121.6 36.266666-40.533333 23.466667-40.533333 83.2-138.666667 160-23.466667 19.2 25.6 119.466667 4.266667 140.8-21.333333 23.466667-110.933333 23.466667-132.266667 10.666667-32-19.2-6.4-66.133333 0-134.4-64 6.4-85.333333 6.4-149.333333 2.133333 10.666667 53.333333 23.466667 110.933333 4.266666 130.133334-17.066667 14.933333-100.266667 17.066667-125.866666 0-32-21.333333 23.466667-142.933333 4.266666-145.066667-21.333333-2.133333-155.733333 2.133333-132.266666-142.933333 25.6 36.266667 68.266667 72.533333 117.333333 55.466666 2.133333-53.333333 19.2-104.533333 44.8-145.066666 34.133333-53.333333 87.466667-89.6 155.733333-89.6 66.133333 0 121.6 29.866667 157.866667 74.666666 27.733333 36.266667 44.8 83.2 44.8 134.4 70.4-53.333333 19.2-185.6 102.4-234.666666 59.733333-34.133333 130.133333-17.066667 164.266667 38.4 17.066667 29.866667 21.333333 81.066667 0 108.8z" fill="#FFFFFF" p-id="3850">
    </path>
</svg>